{"title":"A.Shot.In.The.Dark.1964.1080p.WEB-DL.DD5.1.H264-FGT","uid":12616207,"size":3515114552,"categoryP":"video","categoryS":"hd___movies","magnet":"?xt=urn:btih:3157c7c2cb92bf828442c1fba62c7d4f52d7346f&amp;dn=A.Shot.In.The.Dark.1964.1080p.WEB-DL.DD5.1.H264-FGT&amp;tr=udp%3A%2F%2Ftracker.leechers-paradise.org%3A6969&amp;tr=udp%3A%2F%2Fzer0day.ch%3A1337&amp;tr=udp%3A%2F%2Fopen.demonii.com%3A1337&amp;tr=udp%3A%2F%2Ftracker.coppersurfer.tk%3A6969&amp;tr=udp%3A%2F%2Fexodus.desync.com%3A6969","seeders":0,"leechers":1,"uploader":"whydontweputherincharge","files":3,"time":1445519120,"description":"Video\r\nID                                       : 1\r\nFormat                                   : AVC\r\nFormat/Info                              : Advanced Video Codec\r\nFormat profile                           :   \r\nFormat settings, CABAC                   : Yes\r\nFormat settings, ReFrames                : 2 frames\r\nCodec ID                                 : V_MPEG4/ISO/AVC\r\nDuration                                 : 1h 42mn\r\nBit rate mode                            : Variable\r\nBit rate                                 : 4 102 Kbps\r\nMaximum bit rate                         : 768 Kbps\r\nWidth                                    : 1 914 pixels\r\nHeight                                   : 812 pixels\r\nDisplay aspect ratio                     : 2.35:1\r\nFrame rate mode                          : Constant\r\nFrame rate                               : 23.976 fps\r\nColor space                              : YUV\r\nChroma subsampling                       : 4:2:0\r\nBit depth                                : 8 bits\r\nScan type                                : Progressive\r\nBits/(Pixel*Frame)                       : 0.110\r\nStream size                              : 2.93 GiB (90%)\r\nTitle                                    : A.Shot.In.The.Dark.1964.1080p.WEB-DL.DD5.1.H264-FGT\r\nLanguage                                 : English\r\nDefault                                  : Yes\r\nForced                                   : No\r\n\r\nAudio\r\nID                                       : 2\r\nFormat                                   : AC-3\r\nFormat/Info                              : Audio Coding 3\r\nMode extension                           : CM (complete main)\r\nFormat settings, Endianness              : Big\r\nCodec ID                                 : A_AC3\r\nDuration                                 : 1h 42mn\r\nBit rate mode                            : Constant\r\nBit rate                                 : 384 Kbps\r\nChannel(s)                               : 6 channels\r\nChannel positions                        : Front: L C R, Side: L R, LFE\r\nSampling rate                            : 48.0 KHz\r\nCompression mode                         : Lossy\r\nStream size                              : 281 MiB (8%)\r\nTitle                                    : A.Shot.In.The.Dark.1964.1080p.WEB-DL.DD5.1.H264-FGT\r\nLanguage                                 : English\r\nDefault                                  : Yes\r\nForced                                   : No\r\n\r\nText #1\r\nID                                       : 3\r\nFormat                                   : UTF-8\r\nCodec ID                                 : S_TEXT/UTF8\r\nCodec ID/Info                            : UTF-8 Plain Text\r\nLanguage                                 : English\r\nDefault                                  : Yes\r\nForced                                   : Yes","torrent":{"xt":"urn:btih:3157c7c2cb92bf828442c1fba62c7d4f52d7346f","amp;dn":"A.Shot.In.The.Dark.1964.1080p.WEB-DL.DD5.1.H264-FGT","amp;tr":["udp%3A%2F%2Ftracker.leechers-paradise.org%3A6969","udp%3A%2F%2Fzer0day.ch%3A1337","udp%3A%2F%2Fopen.demonii.com%3A1337","udp%3A%2F%2Ftracker.coppersurfer.tk%3A6969","udp%3A%2F%2Fexodus.desync.com%3A6969"],"infoHash":"3157c7c2cb92bf828442c1fba62c7d4f52d7346f","infoHashBuffer":{"type":"Buffer","data":[49,87,199,194,203,146,191,130,132,66,193,251,166,44,125,79,82,215,52,111]},"announce":[],"urlList":[]}}